<?xml version="1.0" encoding="utf-8"?>
<!-- Generator: Adobe Illustrator 25.4.1, SVG Export Plug-In . SVG Version: 6.00 Build 0)  -->
<svg version="1.1" id="Layer_1" xmlns="http://www.w3.org/2000/svg" xmlns:xlink="http://www.w3.org/1999/xlink" x="0px" y="0px"
	 viewBox="0 0 1032 264" style="enable-background:new 0 0 1032 264;" xml:space="preserve">
<style type="text/css">
	.st0{fill:#FFFFFF;}
	.st1{fill:#231F20;}
	.st2{fill:#6EC7E2;}
	.st3{fill:#414042;}
	.st4{fill:#363839;}
	.st5{fill:#01797C;}
	.st6{fill:#36A05E;}
	.st7{fill:#764885;}
	.st8{fill:#F15F22;}
	.st9{fill:#F4C445;}
</style>
<g>
	<path class="st2" d="M1025.5,211.5c-3.1-2.2-8.5-1.8-13.1,4.3c-3.3,4.5-18.5,16.4-28.8,17.8c-3.1,0.4-5.6-0.2-7.4-1.8
		c-3.8-3.5-0.4-14.4,2.7-23.9c0.8-2.6,2.8-9.7,2.8-9.7c3.1-12.1,7-27.2-7-34.7c-4.1-2.2-8.4-2.5-12.7-1c-9,3.2-17.7,11.5-26.3,28.9
		l-2.6,5.2c0,0,2.2-17.1,2-27.8c-0.1-8-4.8-10.8-9.8-10.6c-3.8,0.1-8.5,2.8-9.1,9.9c-0.7,7.5-1.6,18.3-2.3,23.7
		c-0.8,5.4-1.7,13.1-7,20.8c-4.8,6.9-11.2,16.3-24.7,21.4c-16.2,6.1-30.9,3.6-37.2-10.6c35.4-5.9,44.1-26.2,44.4-40.6
		c0.3-12.6-6.3-22.8-18.1-26.5c-9-2.8-23.9-2.5-35.2,7.4c-10.6,9.3-17.7,21.1-16.4,46.5c-12.5-1.5-21.6-11-25.9-19.7
		c2.2-5.7,4.1-21.9,0.4-26.8c-2.5-3.3-6.8-4.8-12.9-4.4c-5.5,0.3-10.8,4.3-11.7,10.5c-0.9,6.2,0.1,14.6,2.9,21.4
		c-0.4,4.5-18.5,35-24.5,40.5c-1.8-4.2-4.8-13.2-5.9-24.1c-1.1-10.9-1.5-28.5-0.7-43.5c0.3-6.6-5.4-10.5-10.5-10.5
		c-0.1,0-0.2,0-0.2,0c-4.2,0.1-9.5,2.8-10.6,10.1c-3.5,25.4-10.9,57.4-29.5,57.1c-7.6-0.1-9.2-15-9.3-23.8s0.8-20.2,2.1-30
		c0.7-5-1.8-8.8-6.9-10.3c-18.4-5.5-39.1,0.4-50.3,14.3c-5.9,7-9.5,15.3-14.6,27c-10.1,23-27.7,40.1-34.7,36.2
		c-7-3.9-0.5-26.9,4.4-51.5c2.5-12.3-1.1-21.8-8.2-25.9c-5.5-3.2-12.6-1.9-20.1,3.7c-8.7,6.6-20.2,20.9-28.5,31.8
		c1.6-7.1,3.6-20.2,5.7-32c5.4-5.2,13.7-14.1,20.3-21.9c13.4-16.1,43.4-57,32.3-89.3c-3.5-10.3-9.9-15.9-18-15.9
		c-10.3,0-22.3,9.4-29.1,22.8c-10.9,21.8-16,46.8-20.4,71.1c-1.3,7.1-2.8,15.3-4.3,24.2c-1.4,8-2.9,16.5-4.5,25
		c-5.2,28.9-10.3,58.2-12.2,69.8c-0.9,5.4,3.1,9,7.4,10.2c3.8,1,9.2,0.5,12-4.6c1.5-2.6,3.4-6.2,5.6-10.3
		c20.2-37.5,32.3-57.2,38.1-54.6c3.4,1.6,2,8.9-0.7,21.8c-2.3,10.5-4.8,22.4-3.2,29.4c2,8.3,7.1,14.1,14.5,16.3
		c8.5,2.5,21.1-2.3,26.8-5.8c6.4-4,14.4-9.8,17.9-15.4c3.3,6.1,9.4,11.7,16.2,12.3c9.4,0.7,20.5-4.6,28.6-13.6
		c2.2-2.4,5.3-6.6,7.4-9.7c3.8,11.4,11.5,18.6,20.4,20.3c12.7,2.3,30.6-5,38.1-20.6c3.5,14.2,9.3,30.6,14.7,34
		c6.4,4,13.5,1.4,18.2-2.8c4.7-4.2,19.3-25.8,28.8-41.2c12.3,13.5,30.3,13.5,37.9,13.9c2.4,9.4,13.7,22.4,31,26.4
		c20.6,4.8,39.2-3.7,54.8-16.6c-0.5,8.1-0.4,12.8,0.6,16.6c1.2,4.8,5,8,9.6,8c0,0,0,0,0,0c4.3,0,6.9-4.5,7.9-7.8
		c1-3.3,4.3-18.9,7.7-28.3c4.3-12.1,18.4-37.9,26.8-35.4c6.1,1.8,2.5,14.8-1,27.3c-0.8,2.8-1.5,5.5-2.1,7.9
		c-1.3,5.3-4,23.1,14.6,27.5c23.2,5.6,43.7-16.7,53.9-30.5C1029.2,216.8,1027.9,213.2,1025.5,211.5z M561.9,54.7
		c9.2-0.5,7.5,11.9,6.3,18.6c-3.4,18.4-25.7,54.5-35.3,64C535.8,121.4,549.8,55.3,561.9,54.7z M655.9,200.3
		c-5.2,11.9-16.5,25.3-24.7,20.7c-9.1-6.8,3.7-31.1,7-35.5c6-8.1,15.3-10.5,24.8-9.4C662.2,185.4,659.5,192.1,655.9,200.3z
		 M845.8,181.7c4.2-5.7,10.7-8.6,15.9-7.7c5.3,0.9,9.2,5.3,9.2,12.6c0,7.4-5.8,18.9-29.8,22.5C840,199.4,841.3,187.7,845.8,181.7z"
		/>
	<g>
		<path class="st4" d="M201.7,62C196.4,33.1,168.8,4.7,125.8,4C89.8,3.5,67,16.7,50.3,32.4C5.3,72.4-8.1,136.7,15.3,200.2
			c10.5,28.2,38.7,58,66.3,57.7c24.4-0.3,37.2-21.1,39.9-38.8c3.5-18.5,7-38.8,10.5-66.1c17.5-1.4,40-11.8,51.2-25.4
			C200.3,107,205.5,84.9,201.7,62z M72.1,127.5c-3.7,2.9-4.2,7.2-3.8,10.5c0.4,3.3,3.6,6.8,9,9c5.4,2.2,19.3,4.6,27.9,5.5
			c-0.6,4.4-7.1,53.1-9.4,64.9c-2.3,11.7-4.7,19.2-12.7,21.4c-6.9,1.9-15.4-4-20.4-8.8c-30.7-29.5-33.9-90.4-19.2-132.3
			c9.1-26.2,24.1-46,43.4-57.1c11.1-6.3,44-22.9,74-1.4c24.5,17.5,19.6,51,9.6,67.5c-7.4,12.1-18.2,22.8-35.9,24.4
			c0,0,5.7-41.9,7.5-56.5c1.1-8.7-5-13.5-11.6-13.8c-3.6-0.2-7.2,1-9.9,3.3c-2.7,2.2-4.3,5.3-4.8,9c-1.7,13.1-8.1,58-8.1,58
			c-7.7-0.8-16.3-2.8-22.8-4.6C79.6,125.1,75.4,124.9,72.1,127.5z"/>
		<path class="st4" d="M489.7,167.1c-5,2.9-11.8,7.1-18.8,9.7c-6.2-16.1-19.1-22.6-30.2-24.2c-7.5-1.1-14.1,0.9-19.8,5.8
			c-12.7,7.6-21.1,20.3-25.5,37.6c-4.4,17.3-15,43.1-26.4,41.8c-11.9-1.3-10.5-21.1-9.6-33.9c0.4-6.3,5.1-38.1,6.6-46.2
			c5.3-0.2,22.6-1.1,31.9-2.7c9.3-1.6,15.6-10.9,15.3-16.4c-0.2-3.5-3-5.2-7.7-4.8c-7.7,0.7-28,1.8-28,1.8s8.7-10.2,11.9-14.1
			c10.6-12.7,21.5-25.8,26.4-40.9c5.3-16.7,2.6-27.4-8.7-33.6c-9.6-5.3-20.9-2.7-29.4,6.8c-17.6,19.7-23.9,52-28.9,82.3
			c-4.1,0.1-14.3-0.2-20.5-0.4c-7-0.2-10.6,4.8-11.2,10c-0.6,5.3,2,11.1,9.2,11.3c3.5,0.1,9.3,0.5,12.9,0.5
			c-7.4,7-17.7,16.9-26.4,21.4c-2.5-7.9-9.1-14.7-19.2-16.5c-11-2-19.3,0-25.2,2.5c-3.6,1.5-12.6,7.3-17.8,12.9
			c-8.1,8.8-13.7,15.2-19.2,13.8c-12.3-3.1-12.6-12.2-12.4-21.3c0-3.1-1.2-7.2-4.6-9.2c-3.3-2-9.4-1-12.6,1
			c-8.1,4.9-14.3,9.4-22.4,19.5c0.5-7.8-3.7-10.9-8.5-10.8c-6.1,0-11.2,4-12.5,11.3c-1.5,8.9-7.8,51-9.3,59.9
			c-1,6.1,3.9,9.3,8.9,9.7c5.1,0.5,11-1.8,12.1-7.8c4.4-24.7,12.2-41.1,27.9-54.4c1.9-1.6,2.7-1.2,3.4,0.9
			c4.6,15.2,27.5,21.7,37.3,15.9c-2.1,25.8,8.7,38,22,43.6c12,5,29.2,3.9,40.6-9.2c8-9.1,16.1-25.5,15-48.6
			c7.8-4.2,23.4-18.5,25.9-20.8c-2.5,24.7-10.2,61.4,5.2,78.2c10.3,11.2,28.5,12,42.4,1.7c4.5-3.3,9.9-10.3,12.5-15
			c16.5,18.6,41.8,14.9,54.7,1.9c10.4-10.4,15.2-28.7,17.2-42.4l-0.4-2.6c7.9-2.7,16-6.8,22.8-10.6c2.9-1.6,6.4-3.8,10-6.2
			c1.5-8.5,3-17,4.5-25C506.2,156,495.1,163.9,489.7,167.1z M376.3,100c1.5-6.5,6.1-23.4,13.7-30.8c2.9-2.8,6.5-2.6,7.8-1.9
			c3.2,1.8,3.9,8.1,2.5,12.7c-3,10.2-16.3,27.1-19.3,31.1c-3,4-9.9,12.5-9.9,12.5S374.8,106.5,376.3,100z M288.7,227.2
			c-3.6,3.2-9.3,5.6-16.3,4.6c-5.7-0.9-10.9-5.5-12.8-11c-3.5-10.4,0.7-25.9,6.6-29.5c7.1,9.5,19.9,10.5,31.7,7.9
			C298.7,203.6,296.5,220.1,288.7,227.2z M439.3,228.5c-7.5,3.5-18.4,2.4-24-7.6c-4.7-8.3-1.6-26.9,4.5-33c0.7-1.1,1.5-1.9,2.4-2.5
			c9,6.8,20.4,9.9,32.9,10.4c0.3,0.9,0.5,1.8,0.6,2.9C455.1,209.7,451,222.9,439.3,228.5z"/>
	</g>
</g>
</svg>
