<?xml version="1.0" encoding="UTF-8" standalone="no"?>
<!DOCTYPE svg PUBLIC "-//W3C//DTD SVG 1.1//EN" "http://www.w3.org/Graphics/SVG/1.1/DTD/svg11.dtd">
<svg width="100%" height="100%" viewBox="0 0 202 260" version="1.1" xmlns="http://www.w3.org/2000/svg" xmlns:xlink="http://www.w3.org/1999/xlink" xml:space="preserve" xmlns:serif="http://www.serif.com/" style="fill-rule:evenodd;clip-rule:evenodd;stroke-linejoin:round;stroke-miterlimit:2;">
    <g id="logo-protohaven-p" transform="matrix(0.866279,0,0,0.983789,-214.481,0)">
        <rect x="247.589" y="0" width="232.164" height="264" style="fill:none;"/>
        <g transform="matrix(1.15436,0,0,1.01648,243.009,1.07315)">
            <path d="M201.7,62C196.4,33.1 168.8,4.7 125.8,4C89.8,3.5 67,16.7 50.3,32.4C5.3,72.4 -8.1,136.7 15.3,200.2C25.8,228.4 54,258.2 81.6,257.9C106,257.6 118.8,236.8 121.5,219.1C125,200.6 128.5,180.3 132,153C149.5,151.6 172,141.2 183.2,127.6C200.3,107 205.5,84.9 201.7,62ZM72.1,127.5C68.4,130.4 67.9,134.7 68.3,138C68.7,141.3 71.9,144.8 77.3,147C82.7,149.2 96.6,151.6 105.2,152.5C104.6,156.9 98.1,205.6 95.8,217.4C93.5,229.1 91.1,236.6 83.1,238.8C76.2,240.7 67.7,234.8 62.7,230C32,200.5 28.8,139.6 43.5,97.7C52.6,71.5 67.6,51.7 86.9,40.6C98,34.3 130.9,17.7 160.9,39.2C185.4,56.7 180.5,90.2 170.5,106.7C163.1,118.8 152.3,129.5 134.6,131.1C134.6,131.1 140.3,89.2 142.1,74.6C143.2,65.9 137.1,61.1 130.5,60.8C126.9,60.6 123.3,61.8 120.6,64.1C117.9,66.3 116.3,69.4 115.8,73.1C114.1,86.2 107.7,131.1 107.7,131.1C100,130.3 91.4,128.3 84.9,126.5C79.6,125.1 75.4,124.9 72.1,127.5Z" style="fill:rgb(54,56,57);fill-rule:nonzero;"/>
        </g>
    </g>
</svg>
